<svg width="120" height="120" viewBox="0 0 120 120" fill="none" xmlns="http://www.w3.org/2000/svg">
  <!-- Nooterra Logo - Hexagonal Node Pattern -->
  <defs>
    <linearGradient id="nodeGrad" x1="0%" y1="0%" x2="100%" y2="100%">
      <stop offset="0%" stop-color="#4f7cff"/>
      <stop offset="100%" stop-color="#00d4ff"/>
    </linearGradient>
  </defs>
  
  <!-- Row 1 (2 nodes) -->
  <circle cx="52" cy="18" r="3" stroke="currentColor" stroke-width="1.5" fill="none" opacity="0.6"/>
  <circle cx="68" cy="18" r="3" stroke="currentColor" stroke-width="1.5" fill="none" opacity="0.6"/>
  
  <!-- Row 2 (3 nodes) -->
  <circle cx="44" cy="30" r="4" stroke="currentColor" stroke-width="1.5" fill="none" opacity="0.7"/>
  <circle cx="60" cy="30" r="4" stroke="currentColor" stroke-width="1.5" fill="none" opacity="0.7"/>
  <circle cx="76" cy="30" r="4" stroke="currentColor" stroke-width="1.5" fill="none" opacity="0.7"/>
  
  <!-- Row 3 (4 nodes) -->
  <circle cx="36" cy="44" r="5" stroke="currentColor" stroke-width="1.5" fill="none" opacity="0.8"/>
  <circle cx="52" cy="44" r="5" stroke="currentColor" stroke-width="1.5" fill="none" opacity="0.8"/>
  <circle cx="68" cy="44" r="5" stroke="currentColor" stroke-width="1.5" fill="none" opacity="0.8"/>
  <circle cx="84" cy="44" r="5" stroke="currentColor" stroke-width="1.5" fill="none" opacity="0.8"/>
  
  <!-- Row 4 (5 nodes) -->
  <circle cx="28" cy="58" r="6" stroke="currentColor" stroke-width="1.5" fill="none" opacity="0.85"/>
  <circle cx="44" cy="58" r="6" stroke="currentColor" stroke-width="1.5" fill="none" opacity="0.85"/>
  <circle cx="60" cy="58" r="6" stroke="currentColor" stroke-width="1.5" fill="none" opacity="0.85"/>
  <circle cx="76" cy="58" r="6" stroke="currentColor" stroke-width="1.5" fill="none" opacity="0.85"/>
  <circle cx="92" cy="58" r="6" stroke="currentColor" stroke-width="1.5" fill="none" opacity="0.85"/>
  
  <!-- Row 5 (4 nodes) -->
  <circle cx="36" cy="74" r="7" stroke="currentColor" stroke-width="1.5" fill="none" opacity="0.9"/>
  <circle cx="52" cy="74" r="7" stroke="currentColor" stroke-width="1.5" fill="none" opacity="0.9"/>
  <circle cx="68" cy="74" r="7" stroke="currentColor" stroke-width="1.5" fill="none" opacity="0.9"/>
  <circle cx="84" cy="74" r="7" stroke="currentColor" stroke-width="1.5" fill="none" opacity="0.9"/>
  
  <!-- Row 6 (3 nodes) -->
  <circle cx="44" cy="90" r="6" stroke="currentColor" stroke-width="1.5" fill="none" opacity="0.85"/>
  <circle cx="60" cy="90" r="6" stroke="currentColor" stroke-width="1.5" fill="none" opacity="0.85"/>
  <circle cx="76" cy="90" r="6" stroke="currentColor" stroke-width="1.5" fill="none" opacity="0.85"/>
  
  <!-- Row 7 (2 nodes) -->
  <circle cx="52" cy="104" r="5" stroke="currentColor" stroke-width="1.5" fill="none" opacity="0.8"/>
  <circle cx="68" cy="104" r="5" stroke="currentColor" stroke-width="1.5" fill="none" opacity="0.8"/>
</svg>
